<mxfile host="app.diagrams.net" modified="2021-02-25T08:57:11.090Z" agent="5.0 (Windows NT 10.0; Win64; x64) AppleWebKit/537.36 (KHTML, like Gecko) Chrome/88.0.4324.190 Safari/537.36" etag="9vkww-76bbMD5fa0XzdM" version="14.4.3" type="github">
  <diagram id="C5RBs43oDa-KdzZeNtuy" name="Page-1">
    <mxGraphModel dx="1210" dy="1776" grid="1" gridSize="10" guides="1" tooltips="1" connect="1" arrows="1" fold="1" page="1" pageScale="1" pageWidth="827" pageHeight="1169" math="0" shadow="0">
      <root>
        <mxCell id="WIyWlLk6GJQsqaUBKTNV-0" />
        <mxCell id="WIyWlLk6GJQsqaUBKTNV-1" parent="WIyWlLk6GJQsqaUBKTNV-0" />
        <mxCell id="t3ygeQTU_5rc4qZ34IZP-57" value="" style="shape=table;html=1;whiteSpace=wrap;startSize=0;container=1;collapsible=0;childLayout=tableLayout;" vertex="1" parent="WIyWlLk6GJQsqaUBKTNV-1">
          <mxGeometry x="1480" y="-530" width="220" height="350" as="geometry" />
        </mxCell>
        <mxCell id="t3ygeQTU_5rc4qZ34IZP-58" value="" style="shape=partialRectangle;html=1;whiteSpace=wrap;collapsible=0;dropTarget=0;pointerEvents=0;fillColor=none;top=0;left=0;bottom=0;right=0;points=[[0,0.5],[1,0.5]];portConstraint=eastwest;" vertex="1" parent="t3ygeQTU_5rc4qZ34IZP-57">
          <mxGeometry width="220" height="350" as="geometry" />
        </mxCell>
        <mxCell id="t3ygeQTU_5rc4qZ34IZP-59" value="&lt;font style=&quot;font-size: 17px&quot;&gt;&lt;font style=&quot;font-size: 17px&quot;&gt;Customers&lt;/font&gt;&lt;br&gt;&lt;br&gt;&lt;br&gt;&lt;br&gt;&lt;br&gt;&lt;br&gt;&lt;br&gt;&lt;br&gt;&lt;br&gt;&lt;br&gt;&lt;br&gt;&lt;br&gt;&lt;br&gt;&lt;br&gt;&lt;br&gt;&lt;br&gt;&lt;/font&gt;" style="shape=partialRectangle;html=1;whiteSpace=wrap;connectable=0;overflow=hidden;fillColor=none;top=0;left=0;bottom=0;right=0;" vertex="1" parent="t3ygeQTU_5rc4qZ34IZP-58">
          <mxGeometry width="220" height="350" as="geometry" />
        </mxCell>
        <mxCell id="t3ygeQTU_5rc4qZ34IZP-51" value="" style="shape=table;html=1;whiteSpace=wrap;startSize=0;container=1;collapsible=0;childLayout=tableLayout;" vertex="1" parent="WIyWlLk6GJQsqaUBKTNV-1">
          <mxGeometry x="840" y="-440" width="190" height="227.5" as="geometry" />
        </mxCell>
        <mxCell id="t3ygeQTU_5rc4qZ34IZP-52" value="" style="shape=partialRectangle;html=1;whiteSpace=wrap;collapsible=0;dropTarget=0;pointerEvents=0;fillColor=none;top=0;left=0;bottom=0;right=0;points=[[0,0.5],[1,0.5]];portConstraint=eastwest;" vertex="1" parent="t3ygeQTU_5rc4qZ34IZP-51">
          <mxGeometry width="190" height="228" as="geometry" />
        </mxCell>
        <mxCell id="t3ygeQTU_5rc4qZ34IZP-53" value="&lt;font style=&quot;font-size: 16px&quot;&gt;Order Details&lt;br&gt;&lt;br&gt;&lt;br&gt;&lt;br&gt;&lt;br&gt;&lt;br&gt;&lt;br&gt;&lt;br&gt;&lt;br&gt;&lt;br&gt;&lt;br&gt;&lt;/font&gt;" style="shape=partialRectangle;html=1;whiteSpace=wrap;connectable=0;overflow=hidden;fillColor=none;top=0;left=0;bottom=0;right=0;" vertex="1" parent="t3ygeQTU_5rc4qZ34IZP-52">
          <mxGeometry width="190" height="228" as="geometry" />
        </mxCell>
        <mxCell id="t3ygeQTU_5rc4qZ34IZP-42" value="" style="shape=table;html=1;whiteSpace=wrap;startSize=0;container=1;collapsible=0;childLayout=tableLayout;" vertex="1" parent="WIyWlLk6GJQsqaUBKTNV-1">
          <mxGeometry x="80" y="-490" width="260" height="310" as="geometry" />
        </mxCell>
        <mxCell id="t3ygeQTU_5rc4qZ34IZP-43" value="" style="shape=partialRectangle;html=1;whiteSpace=wrap;collapsible=0;dropTarget=0;pointerEvents=0;fillColor=none;top=0;left=0;bottom=0;right=0;points=[[0,0.5],[1,0.5]];portConstraint=eastwest;" vertex="1" parent="t3ygeQTU_5rc4qZ34IZP-42">
          <mxGeometry width="260" height="310" as="geometry" />
        </mxCell>
        <mxCell id="t3ygeQTU_5rc4qZ34IZP-44" value="&lt;span style=&quot;font-size: 18px&quot;&gt;Suppliers&lt;br&gt;&lt;br&gt;&lt;br&gt;&lt;br&gt;&lt;br&gt;&lt;br&gt;&lt;br&gt;&lt;br&gt;&lt;br&gt;&lt;br&gt;&lt;br&gt;&lt;br&gt;&lt;br&gt;&lt;br&gt;&lt;/span&gt;" style="shape=partialRectangle;html=1;whiteSpace=wrap;connectable=0;overflow=hidden;fillColor=none;top=0;left=0;bottom=0;right=0;" vertex="1" parent="t3ygeQTU_5rc4qZ34IZP-43">
          <mxGeometry width="260" height="310" as="geometry" />
        </mxCell>
        <mxCell id="t3ygeQTU_5rc4qZ34IZP-39" value="" style="shape=table;html=1;whiteSpace=wrap;startSize=0;container=1;collapsible=0;childLayout=tableLayout;" vertex="1" parent="WIyWlLk6GJQsqaUBKTNV-1">
          <mxGeometry x="1120" y="-500" width="240" height="330" as="geometry" />
        </mxCell>
        <mxCell id="t3ygeQTU_5rc4qZ34IZP-40" value="" style="shape=partialRectangle;html=1;whiteSpace=wrap;collapsible=0;dropTarget=0;pointerEvents=0;fillColor=none;top=0;left=0;bottom=0;right=0;points=[[0,0.5],[1,0.5]];portConstraint=eastwest;" vertex="1" parent="t3ygeQTU_5rc4qZ34IZP-39">
          <mxGeometry width="240" height="330" as="geometry" />
        </mxCell>
        <mxCell id="t3ygeQTU_5rc4qZ34IZP-41" value="&lt;font style=&quot;font-size: 22px&quot;&gt;Orders&lt;br&gt;&lt;br&gt;&lt;br&gt;&lt;br&gt;&lt;br&gt;&lt;br&gt;&lt;br&gt;&lt;br&gt;&lt;br&gt;&lt;br&gt;&lt;br&gt;&lt;br&gt;&lt;br&gt;&lt;/font&gt;" style="shape=partialRectangle;html=1;whiteSpace=wrap;connectable=0;overflow=hidden;fillColor=none;top=0;left=0;bottom=0;right=0;" vertex="1" parent="t3ygeQTU_5rc4qZ34IZP-40">
          <mxGeometry width="240" height="330" as="geometry" />
        </mxCell>
        <mxCell id="t3ygeQTU_5rc4qZ34IZP-32" value="" style="shape=table;html=1;whiteSpace=wrap;startSize=0;container=1;collapsible=0;childLayout=tableLayout;" vertex="1" parent="WIyWlLk6GJQsqaUBKTNV-1">
          <mxGeometry x="490" y="-430" width="280" height="275" as="geometry" />
        </mxCell>
        <mxCell id="t3ygeQTU_5rc4qZ34IZP-33" value="" style="shape=partialRectangle;html=1;whiteSpace=wrap;collapsible=0;dropTarget=0;pointerEvents=0;fillColor=none;top=0;left=0;bottom=0;right=0;points=[[0,0.5],[1,0.5]];portConstraint=eastwest;" vertex="1" parent="t3ygeQTU_5rc4qZ34IZP-32">
          <mxGeometry width="280" height="275" as="geometry" />
        </mxCell>
        <mxCell id="t3ygeQTU_5rc4qZ34IZP-34" value="&lt;font style=&quot;font-size: 16px&quot;&gt;Products&lt;br&gt;&lt;br&gt;&lt;br&gt;&lt;br&gt;&lt;br&gt;&lt;br&gt;&lt;br&gt;&lt;br&gt;&lt;br&gt;&lt;br&gt;&lt;br&gt;&lt;br&gt;&lt;br&gt;&lt;/font&gt;" style="shape=partialRectangle;html=1;whiteSpace=wrap;connectable=0;overflow=hidden;fillColor=none;top=0;left=0;bottom=0;right=0;" vertex="1" parent="t3ygeQTU_5rc4qZ34IZP-33">
          <mxGeometry width="280" height="275" as="geometry" />
        </mxCell>
        <mxCell id="t3ygeQTU_5rc4qZ34IZP-22" value="" style="shape=table;html=1;whiteSpace=wrap;startSize=0;container=1;collapsible=0;childLayout=tableLayout;" vertex="1" parent="WIyWlLk6GJQsqaUBKTNV-1">
          <mxGeometry x="100" y="-450.5" width="220" height="240.5" as="geometry" />
        </mxCell>
        <mxCell id="t3ygeQTU_5rc4qZ34IZP-25" value="" style="shape=partialRectangle;html=1;whiteSpace=wrap;collapsible=0;dropTarget=0;pointerEvents=0;fillColor=none;top=0;left=0;bottom=0;right=0;points=[[0,0.5],[1,0.5]];portConstraint=eastwest;" vertex="1" parent="t3ygeQTU_5rc4qZ34IZP-22">
          <mxGeometry width="220" height="241" as="geometry" />
        </mxCell>
        <mxCell id="t3ygeQTU_5rc4qZ34IZP-26" value="&lt;font style=&quot;font-size: 16px&quot;&gt;SupplierID&lt;br&gt;CompanyName&lt;br&gt;ContactNameTitle&lt;br&gt;Address&lt;br&gt;City&lt;br&gt;Region&lt;br&gt;PostalCode&lt;br&gt;Country&lt;br&gt;Phone&lt;br&gt;Fax&lt;br&gt;HomePage&lt;/font&gt;" style="shape=partialRectangle;html=1;whiteSpace=wrap;connectable=0;overflow=hidden;fillColor=none;top=0;left=0;bottom=0;right=0;" vertex="1" parent="t3ygeQTU_5rc4qZ34IZP-25">
          <mxGeometry width="220" height="241" as="geometry" />
        </mxCell>
        <mxCell id="t3ygeQTU_5rc4qZ34IZP-1" value="" style="pointerEvents=1;shadow=0;dashed=0;html=1;strokeColor=#d6b656;labelPosition=center;verticalLabelPosition=bottom;verticalAlign=top;outlineConnect=0;align=center;shape=mxgraph.office.security.key_permissions;fillColor=#FFFF33;rotation=0;" vertex="1" parent="WIyWlLk6GJQsqaUBKTNV-1">
          <mxGeometry x="130" y="-440" width="20" height="20" as="geometry" />
        </mxCell>
        <mxCell id="t3ygeQTU_5rc4qZ34IZP-27" value="" style="shape=table;html=1;whiteSpace=wrap;startSize=0;container=1;collapsible=0;childLayout=tableLayout;" vertex="1" parent="WIyWlLk6GJQsqaUBKTNV-1">
          <mxGeometry x="520" y="-390" width="230" height="210" as="geometry" />
        </mxCell>
        <mxCell id="t3ygeQTU_5rc4qZ34IZP-28" value="" style="shape=partialRectangle;html=1;whiteSpace=wrap;collapsible=0;dropTarget=0;pointerEvents=0;fillColor=none;top=0;left=0;bottom=0;right=0;points=[[0,0.5],[1,0.5]];portConstraint=eastwest;" vertex="1" parent="t3ygeQTU_5rc4qZ34IZP-27">
          <mxGeometry width="230" height="210" as="geometry" />
        </mxCell>
        <mxCell id="t3ygeQTU_5rc4qZ34IZP-29" value="&lt;font style=&quot;font-size: 16px&quot;&gt;&amp;nbsp;&lt;font style=&quot;font-size: 16px&quot;&gt;ProductID&lt;br&gt;ProductName&lt;br&gt;SupplierID&lt;br&gt;CategoryID&lt;br&gt;QuantityPerUnit&lt;br&gt;UnitPrice&lt;br&gt;UnitsInstock&lt;br&gt;unitsOnOrder&lt;br&gt;ReorderLevel&lt;br&gt;Discontinued&lt;/font&gt;&lt;/font&gt;" style="shape=partialRectangle;html=1;whiteSpace=wrap;connectable=0;overflow=hidden;fillColor=none;top=0;left=0;bottom=0;right=0;" vertex="1" parent="t3ygeQTU_5rc4qZ34IZP-28">
          <mxGeometry width="230" height="210" as="geometry" />
        </mxCell>
        <mxCell id="t3ygeQTU_5rc4qZ34IZP-30" value="" style="pointerEvents=1;shadow=0;dashed=0;html=1;strokeColor=#d6b656;labelPosition=center;verticalLabelPosition=bottom;verticalAlign=top;outlineConnect=0;align=center;shape=mxgraph.office.security.key_permissions;fillColor=#FFFF33;rotation=0;" vertex="1" parent="WIyWlLk6GJQsqaUBKTNV-1">
          <mxGeometry x="580" y="-380" width="10" height="15" as="geometry" />
        </mxCell>
        <mxCell id="t3ygeQTU_5rc4qZ34IZP-35" value="" style="shape=table;html=1;whiteSpace=wrap;startSize=0;container=1;collapsible=0;childLayout=tableLayout;" vertex="1" parent="WIyWlLk6GJQsqaUBKTNV-1">
          <mxGeometry x="1150" y="-465" width="190" height="270" as="geometry" />
        </mxCell>
        <mxCell id="t3ygeQTU_5rc4qZ34IZP-36" value="" style="shape=partialRectangle;html=1;whiteSpace=wrap;collapsible=0;dropTarget=0;pointerEvents=0;fillColor=none;top=0;left=0;bottom=0;right=0;points=[[0,0.5],[1,0.5]];portConstraint=eastwest;" vertex="1" parent="t3ygeQTU_5rc4qZ34IZP-35">
          <mxGeometry width="190" height="270" as="geometry" />
        </mxCell>
        <mxCell id="t3ygeQTU_5rc4qZ34IZP-37" value="&lt;font style=&quot;font-size: 14px&quot;&gt;OrderID&lt;br&gt;CustomerID&lt;br&gt;EmployeeID&lt;br&gt;OrderDate&lt;br&gt;RequiredDate&lt;br&gt;ShipVia&lt;br&gt;Freight&lt;br&gt;ShipName&lt;br&gt;ShipAddress&lt;br&gt;Shipcity&lt;br&gt;ShipRegion&lt;br&gt;ShipPostalCode&lt;br&gt;ShipCountry&lt;/font&gt;" style="shape=partialRectangle;html=1;whiteSpace=wrap;connectable=0;overflow=hidden;fillColor=none;top=0;left=0;bottom=0;right=0;" vertex="1" parent="t3ygeQTU_5rc4qZ34IZP-36">
          <mxGeometry width="190" height="270" as="geometry" />
        </mxCell>
        <mxCell id="t3ygeQTU_5rc4qZ34IZP-38" value="" style="pointerEvents=1;shadow=0;dashed=0;html=1;strokeColor=#d6b656;labelPosition=center;verticalLabelPosition=bottom;verticalAlign=top;outlineConnect=0;align=center;shape=mxgraph.office.security.key_permissions;fillColor=#FFFF33;rotation=0;" vertex="1" parent="WIyWlLk6GJQsqaUBKTNV-1">
          <mxGeometry x="1190" y="-435" width="20" height="20" as="geometry" />
        </mxCell>
        <mxCell id="t3ygeQTU_5rc4qZ34IZP-46" value="" style="shape=table;html=1;whiteSpace=wrap;startSize=0;container=1;collapsible=0;childLayout=tableLayout;" vertex="1" parent="WIyWlLk6GJQsqaUBKTNV-1">
          <mxGeometry x="870" y="-400" width="130" height="170" as="geometry" />
        </mxCell>
        <mxCell id="t3ygeQTU_5rc4qZ34IZP-47" value="" style="shape=partialRectangle;html=1;whiteSpace=wrap;collapsible=0;dropTarget=0;pointerEvents=0;fillColor=none;top=0;left=0;bottom=0;right=0;points=[[0,0.5],[1,0.5]];portConstraint=eastwest;" vertex="1" parent="t3ygeQTU_5rc4qZ34IZP-46">
          <mxGeometry width="130" height="170" as="geometry" />
        </mxCell>
        <mxCell id="t3ygeQTU_5rc4qZ34IZP-48" value="&lt;font style=&quot;font-size: 16px&quot;&gt;OrderId&lt;br&gt;ProductID&lt;br&gt;UnitPrice&lt;br&gt;Quantity&lt;br&gt;Discount&lt;/font&gt;" style="shape=partialRectangle;html=1;whiteSpace=wrap;connectable=0;overflow=hidden;fillColor=none;top=0;left=0;bottom=0;right=0;" vertex="1" parent="t3ygeQTU_5rc4qZ34IZP-47">
          <mxGeometry width="130" height="170" as="geometry" />
        </mxCell>
        <mxCell id="t3ygeQTU_5rc4qZ34IZP-49" value="" style="pointerEvents=1;shadow=0;dashed=0;html=1;strokeColor=#d6b656;labelPosition=center;verticalLabelPosition=bottom;verticalAlign=top;outlineConnect=0;align=center;shape=mxgraph.office.security.key_permissions;fillColor=#FFFF33;rotation=0;" vertex="1" parent="WIyWlLk6GJQsqaUBKTNV-1">
          <mxGeometry x="890" y="-365" width="10" height="20" as="geometry" />
        </mxCell>
        <mxCell id="t3ygeQTU_5rc4qZ34IZP-50" value="" style="pointerEvents=1;shadow=0;dashed=0;html=1;strokeColor=#d6b656;labelPosition=center;verticalLabelPosition=bottom;verticalAlign=top;outlineConnect=0;align=center;shape=mxgraph.office.security.key_permissions;fillColor=#FFFF33;rotation=0;" vertex="1" parent="WIyWlLk6GJQsqaUBKTNV-1">
          <mxGeometry x="880" y="-345" width="10" height="20" as="geometry" />
        </mxCell>
        <mxCell id="t3ygeQTU_5rc4qZ34IZP-54" value="" style="shape=table;html=1;whiteSpace=wrap;startSize=0;container=1;collapsible=0;childLayout=tableLayout;" vertex="1" parent="WIyWlLk6GJQsqaUBKTNV-1">
          <mxGeometry x="1510" y="-490" width="160" height="280" as="geometry" />
        </mxCell>
        <mxCell id="t3ygeQTU_5rc4qZ34IZP-55" value="" style="shape=partialRectangle;html=1;whiteSpace=wrap;collapsible=0;dropTarget=0;pointerEvents=0;fillColor=none;top=0;left=0;bottom=0;right=0;points=[[0,0.5],[1,0.5]];portConstraint=eastwest;" vertex="1" parent="t3ygeQTU_5rc4qZ34IZP-54">
          <mxGeometry width="160" height="280" as="geometry" />
        </mxCell>
        <mxCell id="t3ygeQTU_5rc4qZ34IZP-56" value="&lt;font style=&quot;font-size: 16px&quot;&gt;CustomerID&lt;br&gt;CompanyName&lt;br&gt;ContactName&lt;br&gt;ContactTitle&lt;br&gt;Address&lt;br&gt;City&lt;br&gt;Region&lt;br&gt;PostalCode&lt;br&gt;Country&lt;br&gt;Phone&lt;br&gt;Fax&lt;/font&gt;" style="shape=partialRectangle;html=1;whiteSpace=wrap;connectable=0;overflow=hidden;fillColor=none;top=0;left=0;bottom=0;right=0;" vertex="1" parent="t3ygeQTU_5rc4qZ34IZP-55">
          <mxGeometry width="160" height="280" as="geometry" />
        </mxCell>
        <mxCell id="t3ygeQTU_5rc4qZ34IZP-60" value="" style="pointerEvents=1;shadow=0;dashed=0;html=1;strokeColor=#d6b656;labelPosition=center;verticalLabelPosition=bottom;verticalAlign=top;outlineConnect=0;align=center;shape=mxgraph.office.security.key_permissions;fillColor=#FFFF33;rotation=0;" vertex="1" parent="WIyWlLk6GJQsqaUBKTNV-1">
          <mxGeometry x="1520" y="-460" width="20" height="20" as="geometry" />
        </mxCell>
        <mxCell id="t3ygeQTU_5rc4qZ34IZP-61" value="" style="endArrow=ERoneToMany;html=1;endFill=0;startArrow=ERzeroToOne;startFill=1;strokeWidth=1;" edge="1" parent="WIyWlLk6GJQsqaUBKTNV-1">
          <mxGeometry width="50" height="50" relative="1" as="geometry">
            <mxPoint x="880" y="-590" as="sourcePoint" />
            <mxPoint x="1340" y="-580" as="targetPoint" />
            <Array as="points">
              <mxPoint x="1140" y="-610" />
            </Array>
          </mxGeometry>
        </mxCell>
      </root>
    </mxGraphModel>
  </diagram>
</mxfile>
